<svg xmlns="http://www.w3.org/2000/svg" version="1.1" xmlns:xlink="http://www.w3.org/1999/xlink" xmlns:svgjs="http://svgjs.com/svgjs" width="2050" height="300" transform="matrix(1,0,0,1,0,0)">
  <text font-family="DM Sans" font-size="260" text-anchor="left" x="310" charspacing="20px">
    <tspan dy="239.20000000000002" x="310">unicentral</tspan>
  </text>
  <path transform="matrix(6.123233995736766e-17,1,-1,6.123233995736766e-17,148,149.33)" d="M58.175,18.071A22,22,-123.39073623189253,0,0,37.332,17.154L3.5,33.5A9.571058684008634,9.571058684008634,21.920589303051823,0,1,-7.744,18.442L75.556,-73.129A22,22,62.40078238926799,0,1,112.489,-65.889L145.682,24.773A22,22,39.069364539572724,0,1,113.751,51.229ZM-58.175,-18.071A22,22,236.60926376810747,0,0,-37.332,-17.154L-3.5,-33.5A9.571058684008634,9.571058684008634,21.920589303051823,0,1,7.744,-18.442L-75.556,73.129A22,22,-297.599217610732,0,1,-112.489,65.889L-145.682,-24.773A22,22,39.069364539572724,0,1,-113.751,-51.229Z"/>
</svg>