<svg xmlns="http://www.w3.org/2000/svg" version="1.1" xmlns:xlink="http://www.w3.org/1999/xlink" xmlns:svgjs="http://svgjs.com/svgjs" width="2050" height="300" transform="matrix(1,0,0,1,0,0)">
  <text font-family="DM Sans" font-size="260" text-anchor="left" x="310" charspacing="20px">
    <tspan dy="239.20000000000002" x="310">unicentral</tspan>
  </text>
  <path transform="matrix(6.123233995736766e-17,1,-1,6.123233995736766e-17,148,149.33)" d="M35.592,72.269A52,52,-227.93464446435325,0,1,11.983,37.235L-5.802,-63.543A49.91016810836966,49.91016810836966,151.55707137563664,0,1,-4,-88L-4,-88A5.345784851976646,5.345784851976646,45.81991940413587,0,1,5.818,-88.768L88.135,70.139A15.954851799174493,15.954851799174493,30.557653684580696,0,1,65.5,91ZM-35.592,-72.269A52,52,132.0653555356468,0,1,-11.983,-37.235L5.802,63.543A49.9101681083697,49.9101681083697,151.55707137563667,0,1,4,88L4,88A5.345784851976644,5.345784851976644,-314.1800805958642,0,1,-5.818,88.768L-88.135,-70.139A15.954851799174499,15.954851799174499,30.557653684580707,0,1,-65.5,-91Z"/>
</svg>